<svg width="59" height="59" viewBox="0 0 59 59" fill="none" xmlns="http://www.w3.org/2000/svg">
<path d="M29.1347 53.2692C15.8055 53.2692 5 42.4638 5 29.1346C5 15.8054 15.8055 5 29.1347 5C42.4638 5 53.2693 15.8054 53.2693 29.1346C53.2693 42.4638 42.4638 53.2692 29.1347 53.2692Z" fill="#656565"/>
<path d="M0 29.2308C0 45.3744 13.0871 58.4615 29.2307 58.4615C45.3745 58.4615 58.4615 45.3744 58.4615 29.2308C58.4615 13.0871 45.3745 0 29.2307 0C13.0871 0 0 13.0871 0 29.2308ZM53.2969 29.2308C53.2969 42.5221 42.5221 53.2969 29.2307 53.2969C15.9394 53.2969 5.16462 42.5221 5.16462 29.2308C5.16462 15.9394 15.9394 5.16463 29.2307 5.16463C42.5221 5.16463 53.2969 15.9394 53.2969 29.2308Z" fill="url(#paint0_linear_56_55)"/>
<g filter="url(#filter0_i_56_55)">
<path d="M26.2352 28.1069C24.9018 28.8767 24.9018 30.8012 26.2352 31.571L34.8024 36.5173C36.1358 37.2871 37.8024 36.3248 37.8024 34.7852V24.8927C37.8024 23.3531 36.1358 22.3908 34.8024 23.1606L26.2352 28.1069Z" fill="url(#paint1_linear_56_55)"/>
</g>
<g filter="url(#filter1_i_56_55)">
<path d="M20.231 23.5C20.231 22.6716 20.9025 22 21.731 22C22.5594 22 23.231 22.6716 23.231 23.5V36.5C23.231 37.3284 22.5594 38 21.731 38C20.9025 38 20.231 37.3284 20.231 36.5V23.5Z" fill="url(#paint2_linear_56_55)"/>
</g>
<defs>
<filter id="filter0_i_56_55" x="25.2351" y="22.8896" width="12.5673" height="16.8151" filterUnits="userSpaceOnUse" color-interpolation-filters="sRGB">
<feFlood flood-opacity="0" result="BackgroundImageFix"/>
<feBlend mode="normal" in="SourceGraphic" in2="BackgroundImageFix" result="shape"/>
<feColorMatrix in="SourceAlpha" type="matrix" values="0 0 0 0 0 0 0 0 0 0 0 0 0 0 0 0 0 0 127 0" result="hardAlpha"/>
<feOffset dy="2.91667"/>
<feGaussianBlur stdDeviation="1.45833"/>
<feComposite in2="hardAlpha" operator="arithmetic" k2="-1" k3="1"/>
<feColorMatrix type="matrix" values="0 0 0 0 0 0 0 0 0 0 0 0 0 0 0 0 0 0 0.25 0"/>
<feBlend mode="normal" in2="shape" result="effect1_innerShadow_56_55"/>
</filter>
<filter id="filter1_i_56_55" x="20.231" y="22" width="3" height="19" filterUnits="userSpaceOnUse" color-interpolation-filters="sRGB">
<feFlood flood-opacity="0" result="BackgroundImageFix"/>
<feBlend mode="normal" in="SourceGraphic" in2="BackgroundImageFix" result="shape"/>
<feColorMatrix in="SourceAlpha" type="matrix" values="0 0 0 0 0 0 0 0 0 0 0 0 0 0 0 0 0 0 127 0" result="hardAlpha"/>
<feOffset dy="3"/>
<feGaussianBlur stdDeviation="1.5"/>
<feComposite in2="hardAlpha" operator="arithmetic" k2="-1" k3="1"/>
<feColorMatrix type="matrix" values="0 0 0 0 0 0 0 0 0 0 0 0 0 0 0 0 0 0 0.25 0"/>
<feBlend mode="normal" in2="shape" result="effect1_innerShadow_56_55"/>
</filter>
<linearGradient id="paint0_linear_56_55" x1="58.4615" y1="39.7539" x2="-0.0870987" y2="39.3001" gradientUnits="userSpaceOnUse">
<stop stop-color="#0467BA"/>
<stop offset="1" stop-color="#4BE8F2"/>
</linearGradient>
<linearGradient id="paint1_linear_56_55" x1="37.8024" y1="32.8667" x2="23.2132" y2="32.7688" gradientUnits="userSpaceOnUse">
<stop stop-color="#0467BA"/>
<stop offset="1" stop-color="#4BE8F2"/>
</linearGradient>
<linearGradient id="paint2_linear_56_55" x1="23.231" y1="32.88" x2="20.2263" y2="32.8756" gradientUnits="userSpaceOnUse">
<stop stop-color="#0467BA"/>
<stop offset="1" stop-color="#4BE8F2"/>
</linearGradient>
</defs>
</svg>
