<svg width="94" height="94" viewBox="0 0 94 94" fill="none" xmlns="http://www.w3.org/2000/svg">
<g filter="url(#filter0_i_44_124)">
<path d="M46.9233 85.2308C68.2499 85.2308 85.5386 67.9421 85.5386 46.6154C85.5386 25.2887 68.2499 8 46.9233 8C25.5966 8 8.30786 25.2887 8.30786 46.6154C8.30786 67.9421 25.5966 85.2308 46.9233 85.2308Z" fill="#656565"/>
</g>
<path d="M93.5385 46.7692C93.5385 72.5991 72.5991 93.5385 46.7692 93.5385C20.9393 93.5385 0 72.5991 0 46.7692C0 20.9393 20.9393 0 46.7692 0C72.5991 0 93.5385 20.9393 93.5385 46.7692ZM8.26342 46.7692C8.26342 68.0354 25.5031 85.2751 46.7692 85.2751C68.0354 85.2751 85.2751 68.0354 85.2751 46.7692C85.2751 25.503 68.0354 8.26342 46.7692 8.26342C25.5031 8.26342 8.26342 25.503 8.26342 46.7692Z" fill="url(#paint0_linear_44_124)"/>
<g filter="url(#filter1_i_44_124)">
<path d="M33.7693 32V62C33.7693 64.7614 36.0079 67 38.7693 67C41.5307 67 43.7693 64.7614 43.7693 62V32C43.7693 29.2386 41.5307 27 38.7693 27C36.0079 27 33.7693 29.2386 33.7693 32Z" fill="url(#paint1_linear_44_124)"/>
</g>
<g filter="url(#filter2_i_44_124)">
<path d="M50.2644 32.0874V62.0874C50.2644 64.8488 52.503 67.0874 55.2644 67.0874C58.0258 67.0874 60.2644 64.8488 60.2644 62.0874V32.0874C60.2644 29.326 58.0258 27.0874 55.2644 27.0874C52.503 27.0874 50.2644 29.326 50.2644 32.0874Z" fill="url(#paint2_linear_44_124)"/>
</g>
<defs>
<filter id="filter0_i_44_124" x="8.30786" y="8" width="77.2307" height="81.231" filterUnits="userSpaceOnUse" color-interpolation-filters="sRGB">
<feFlood flood-opacity="0" result="BackgroundImageFix"/>
<feBlend mode="normal" in="SourceGraphic" in2="BackgroundImageFix" result="shape"/>
<feColorMatrix in="SourceAlpha" type="matrix" values="0 0 0 0 0 0 0 0 0 0 0 0 0 0 0 0 0 0 127 0" result="hardAlpha"/>
<feOffset dy="4"/>
<feGaussianBlur stdDeviation="2"/>
<feComposite in2="hardAlpha" operator="arithmetic" k2="-1" k3="1"/>
<feColorMatrix type="matrix" values="0 0 0 0 0 0 0 0 0 0 0 0 0 0 0 0 0 0 0.25 0"/>
<feBlend mode="normal" in2="shape" result="effect1_innerShadow_44_124"/>
</filter>
<filter id="filter1_i_44_124" x="33.7693" y="27" width="10" height="44" filterUnits="userSpaceOnUse" color-interpolation-filters="sRGB">
<feFlood flood-opacity="0" result="BackgroundImageFix"/>
<feBlend mode="normal" in="SourceGraphic" in2="BackgroundImageFix" result="shape"/>
<feColorMatrix in="SourceAlpha" type="matrix" values="0 0 0 0 0 0 0 0 0 0 0 0 0 0 0 0 0 0 127 0" result="hardAlpha"/>
<feOffset dy="4"/>
<feGaussianBlur stdDeviation="2"/>
<feComposite in2="hardAlpha" operator="arithmetic" k2="-1" k3="1"/>
<feColorMatrix type="matrix" values="0 0 0 0 0 0 0 0 0 0 0 0 0 0 0 0 0 0 0.25 0"/>
<feBlend mode="normal" in2="shape" result="effect1_innerShadow_44_124"/>
</filter>
<filter id="filter2_i_44_124" x="50.2644" y="27.0874" width="10" height="44" filterUnits="userSpaceOnUse" color-interpolation-filters="sRGB">
<feFlood flood-opacity="0" result="BackgroundImageFix"/>
<feBlend mode="normal" in="SourceGraphic" in2="BackgroundImageFix" result="shape"/>
<feColorMatrix in="SourceAlpha" type="matrix" values="0 0 0 0 0 0 0 0 0 0 0 0 0 0 0 0 0 0 127 0" result="hardAlpha"/>
<feOffset dy="4"/>
<feGaussianBlur stdDeviation="2"/>
<feComposite in2="hardAlpha" operator="arithmetic" k2="-1" k3="1"/>
<feColorMatrix type="matrix" values="0 0 0 0 0 0 0 0 0 0 0 0 0 0 0 0 0 0 0.25 0"/>
<feBlend mode="normal" in2="shape" result="effect1_innerShadow_44_124"/>
</filter>
<linearGradient id="paint0_linear_44_124" x1="1.2744e-08" y1="63.6062" x2="93.6778" y2="62.8802" gradientUnits="userSpaceOnUse">
<stop stop-color="#0467BA"/>
<stop offset="1" stop-color="#4BE8F2"/>
</linearGradient>
<linearGradient id="paint1_linear_44_124" x1="40.5693" y1="67" x2="39.3286" y2="26.9765" gradientUnits="userSpaceOnUse">
<stop stop-color="#0467BA"/>
<stop offset="1" stop-color="#4BE8F2"/>
</linearGradient>
<linearGradient id="paint2_linear_44_124" x1="57.0644" y1="67.0874" x2="55.8237" y2="27.0638" gradientUnits="userSpaceOnUse">
<stop stop-color="#0467BA"/>
<stop offset="1" stop-color="#4BE8F2"/>
</linearGradient>
</defs>
</svg>
