<svg width="94" height="94" viewBox="0 0 94 94" fill="none" xmlns="http://www.w3.org/2000/svg">
<g filter="url(#filter0_i_44_132)">
<path d="M46.9233 85.2308C68.2499 85.2308 85.5386 67.9421 85.5386 46.6154C85.5386 25.2887 68.2499 8 46.9233 8C25.5966 8 8.30786 25.2887 8.30786 46.6154C8.30786 67.9421 25.5966 85.2308 46.9233 85.2308Z" fill="#656565"/>
</g>
<path d="M93.5385 46.7692C93.5385 72.5991 72.5991 93.5385 46.7692 93.5385C20.9393 93.5385 0 72.5991 0 46.7692C0 20.9393 20.9393 0 46.7692 0C72.5991 0 93.5385 20.9393 93.5385 46.7692ZM8.26342 46.7692C8.26342 68.0354 25.5031 85.2751 46.7692 85.2751C68.0354 85.2751 85.2751 68.0354 85.2751 46.7692C85.2751 25.503 68.0354 8.26342 46.7692 8.26342C25.5031 8.26342 8.26342 25.503 8.26342 46.7692Z" fill="url(#paint0_linear_44_132)"/>
<path d="M58.1552 44.7073C60.3073 45.9485 60.3073 49.0514 58.1552 50.2926L38.6117 61.5632C36.4596 62.8043 33.7693 61.2528 33.7693 58.7705V36.2294C33.7693 33.7471 36.4596 32.1957 38.6117 33.4368L58.1552 44.7073Z" fill="url(#paint1_linear_44_132)"/>
<defs>
<filter id="filter0_i_44_132" x="8.30786" y="8" width="77.2307" height="81.231" filterUnits="userSpaceOnUse" color-interpolation-filters="sRGB">
<feFlood flood-opacity="0" result="BackgroundImageFix"/>
<feBlend mode="normal" in="SourceGraphic" in2="BackgroundImageFix" result="shape"/>
<feColorMatrix in="SourceAlpha" type="matrix" values="0 0 0 0 0 0 0 0 0 0 0 0 0 0 0 0 0 0 127 0" result="hardAlpha"/>
<feOffset dy="4"/>
<feGaussianBlur stdDeviation="2"/>
<feComposite in2="hardAlpha" operator="arithmetic" k2="-1" k3="1"/>
<feColorMatrix type="matrix" values="0 0 0 0 0 0 0 0 0 0 0 0 0 0 0 0 0 0 0.25 0"/>
<feBlend mode="normal" in2="shape" result="effect1_innerShadow_44_132"/>
</filter>
<linearGradient id="paint0_linear_44_132" x1="1.2744e-08" y1="63.6062" x2="93.6778" y2="62.8802" gradientUnits="userSpaceOnUse">
<stop stop-color="#F73C5D"/>
<stop offset="1" stop-color="#FF7D81"/>
</linearGradient>
<linearGradient id="paint1_linear_44_132" x1="33.7693" y1="53.568" x2="63.0415" y2="53.3713" gradientUnits="userSpaceOnUse">
<stop stop-color="#F73C5D"/>
<stop offset="1" stop-color="#FF7D81"/>
</linearGradient>
</defs>
</svg>
