<svg width="63" height="63" viewBox="0 0 63 63" fill="none" xmlns="http://www.w3.org/2000/svg">
<path d="M31.5 0.4375C23.2925 0.536522 15.449 3.84096 9.64498 9.64498C3.84096 15.449 0.536522 23.2925 0.4375 31.5C0.536522 39.7075 3.84096 47.551 9.64498 53.355C15.449 59.159 23.2925 62.4635 31.5 62.5625C39.7075 62.4635 47.551 59.159 53.355 53.355C59.159 47.551 62.4635 39.7075 62.5625 31.5C62.4635 23.2925 59.159 15.449 53.355 9.64498C47.551 3.84096 39.7075 0.536522 31.5 0.4375ZM49.25 33.7188H33.7188V49.25H29.2812V33.7188H13.75V29.2812H29.2812V13.75H33.7188V29.2812H49.25V33.7188Z" fill="white"/>
</svg>
