<svg width="26" height="22" viewBox="0 0 26 22" fill="none" xmlns="http://www.w3.org/2000/svg">
<g clip-path="url(#clip0_59_222)">
<path d="M22.5163 11C22.5163 8.63615 21.6365 6.35688 20.0483 4.60604C18.4601 2.8552 16.2771 1.75812 13.9244 1.52843" stroke="#F6F5F3" stroke-width="1.5"/>
<path d="M22.5163 14.3198L24.8163 11.0001H20.2163L22.5163 14.3198Z" fill="#F6F5F3"/>
<path d="M8.24135 19.2416C10.2885 20.4235 12.7023 20.8012 15.0127 20.3012C17.3231 19.8012 19.3647 18.4592 20.74 16.5365" stroke="#F6F5F3" stroke-width="1.5"/>
<path d="M5.36631 17.5817L7.09131 21.2335L9.3913 17.2498L5.36631 17.5817Z" fill="#F6F5F3"/>
<path d="M8.24149 2.75839C6.19431 3.94033 4.66029 5.84187 3.93813 8.09274C3.21598 10.3436 3.35738 12.7827 4.33481 14.935" stroke="#F6F5F3" stroke-width="1.5"/>
<path d="M11.1164 1.09844L7.09144 0.766466L9.39144 4.75017L11.1164 1.09844Z" fill="#F6F5F3"/>
</g>
<defs>
<clipPath id="clip0_59_222">
<rect width="26" height="22" fill="white"/>
</clipPath>
</defs>
</svg>
