<svg width="34" height="16" viewBox="0 0 34 16" fill="none" xmlns="http://www.w3.org/2000/svg">
<path d="M1.56 0.999999H8.68C8.90667 0.999999 9.1 1.07333 9.26 1.22C9.42 1.36667 9.5 1.55333 9.5 1.78C9.5 2.00667 9.42 2.19333 9.26 2.34C9.1 2.47333 8.90667 2.54 8.68 2.54H2.24L2.42 2.2V7.26L2.22 7.04H7.78C8.00667 7.04 8.2 7.11333 8.36 7.26C8.52 7.40667 8.6 7.59333 8.6 7.82C8.6 8.04667 8.52 8.23333 8.36 8.38C8.2 8.51333 8.00667 8.58 7.78 8.58H2.28L2.42 8.4V13.58L2.3 13.44H8.68C8.90667 13.44 9.1 13.52 9.26 13.68C9.42 13.84 9.5 14.02 9.5 14.22C9.5 14.4467 9.42 14.6333 9.26 14.78C9.1 14.9267 8.90667 15 8.68 15H1.56C1.33333 15 1.14 14.92 0.98 14.76C0.833333 14.6 0.76 14.4067 0.76 14.18V1.8C0.76 1.57333 0.833333 1.38667 0.98 1.24C1.14 1.08 1.33333 0.999999 1.56 0.999999ZM20.3086 0.2C20.5353 0.2 20.7219 0.28 20.8686 0.439999C21.0286 0.586666 21.1086 0.773333 21.1086 0.999999V14.18C21.1086 14.4067 21.0286 14.6 20.8686 14.76C20.7219 14.92 20.5353 15 20.3086 15C20.0686 15 19.8753 14.92 19.7286 14.76C19.5819 14.6 19.5086 14.4067 19.5086 14.18V12.28L19.8886 12.14C19.8886 12.46 19.7886 12.8 19.5886 13.16C19.3886 13.5067 19.1153 13.8333 18.7686 14.14C18.4219 14.4467 18.0086 14.7 17.5286 14.9C17.0619 15.1 16.5553 15.2 16.0086 15.2C15.1153 15.2 14.3019 14.9667 13.5686 14.5C12.8486 14.0333 12.2753 13.3933 11.8486 12.58C11.4353 11.7667 11.2286 10.84 11.2286 9.8C11.2286 8.74667 11.4353 7.81333 11.8486 7C12.2753 6.18667 12.8486 5.55333 13.5686 5.1C14.2886 4.63333 15.0886 4.4 15.9686 4.4C16.5286 4.4 17.0553 4.49333 17.5486 4.68C18.0419 4.86667 18.4686 5.12 18.8286 5.44C19.2019 5.76 19.4953 6.11333 19.7086 6.5C19.9219 6.88667 20.0286 7.27333 20.0286 7.66L19.5086 7.54V0.999999C19.5086 0.773333 19.5819 0.586666 19.7286 0.439999C19.8753 0.28 20.0686 0.2 20.3086 0.2ZM16.1886 13.72C16.8553 13.72 17.4419 13.5533 17.9486 13.22C18.4686 12.8733 18.8686 12.4067 19.1486 11.82C19.4419 11.22 19.5886 10.5467 19.5886 9.8C19.5886 9.04 19.4419 8.36667 19.1486 7.78C18.8686 7.19333 18.4686 6.73333 17.9486 6.4C17.4419 6.05333 16.8553 5.88 16.1886 5.88C15.5353 5.88 14.9486 6.05333 14.4286 6.4C13.9219 6.73333 13.5219 7.19333 13.2286 7.78C12.9353 8.36667 12.7886 9.04 12.7886 9.8C12.7886 10.5333 12.9353 11.2 13.2286 11.8C13.5219 12.3867 13.9219 12.8533 14.4286 13.2C14.9486 13.5467 15.5353 13.72 16.1886 13.72ZM25.6138 14.18C25.6138 14.4067 25.5338 14.6 25.3738 14.76C25.2271 14.92 25.0404 15 24.8138 15C24.5738 15 24.3804 14.92 24.2338 14.76C24.0871 14.6 24.0138 14.4067 24.0138 14.18V5.3C24.0138 5.07333 24.0871 4.88667 24.2338 4.74C24.3938 4.58 24.5871 4.5 24.8138 4.5C25.0404 4.5 25.2271 4.58 25.3738 4.74C25.5338 4.88667 25.6138 5.07333 25.6138 5.3V14.18ZM24.8138 3.16C24.4804 3.16 24.2338 3.09333 24.0738 2.96C23.9138 2.82667 23.8338 2.62 23.8338 2.34V2.06C23.8338 1.78 23.9204 1.57333 24.0938 1.44C24.2671 1.30667 24.5138 1.24 24.8338 1.24C25.1538 1.24 25.3938 1.30667 25.5538 1.44C25.7138 1.57333 25.7938 1.78 25.7938 2.06V2.34C25.7938 2.62 25.7071 2.82667 25.5337 2.96C25.3738 3.09333 25.1338 3.16 24.8138 3.16ZM28.0878 4.72H32.7878C33.0011 4.72 33.1745 4.79333 33.3078 4.94C33.4545 5.08667 33.5278 5.26 33.5278 5.46C33.5278 5.67333 33.4545 5.85333 33.3078 6C33.1745 6.13333 33.0011 6.2 32.7878 6.2H28.0878C27.8878 6.2 27.7145 6.12667 27.5678 5.98C27.4211 5.83333 27.3478 5.65333 27.3478 5.44C27.3478 5.24 27.4211 5.07333 27.5678 4.94C27.7145 4.79333 27.8878 4.72 28.0878 4.72ZM30.1878 2C30.4145 2 30.6011 2.08 30.7478 2.24C30.8945 2.38667 30.9678 2.57333 30.9678 2.8V12.46C30.9678 12.78 31.0145 13.02 31.1078 13.18C31.2011 13.34 31.3211 13.4533 31.4678 13.52C31.6278 13.5733 31.7811 13.6 31.9278 13.6C32.0611 13.6 32.1745 13.58 32.2678 13.54C32.3745 13.4867 32.4945 13.46 32.6278 13.46C32.7611 13.46 32.8811 13.5267 32.9878 13.66C33.1078 13.78 33.1678 13.94 33.1678 14.14C33.1678 14.38 33.0278 14.5867 32.7478 14.76C32.4678 14.92 32.1545 15 31.8078 15C31.6211 15 31.3878 14.9867 31.1078 14.96C30.8411 14.9333 30.5745 14.8467 30.3078 14.7C30.0411 14.5533 29.8145 14.3133 29.6278 13.98C29.4545 13.6333 29.3678 13.1533 29.3678 12.54V2.8C29.3678 2.57333 29.4478 2.38667 29.6078 2.24C29.7678 2.08 29.9611 2 30.1878 2Z" fill="white"/>
</svg>
