<svg width="26" height="26" viewBox="0 0 26 26" fill="none" xmlns="http://www.w3.org/2000/svg">
<path d="M21.125 13C21.125 12.7845 21.2106 12.5778 21.363 12.4255C21.5153 12.2731 21.722 12.1875 21.9375 12.1875C22.153 12.1875 22.3597 12.2731 22.512 12.4255C22.6644 12.5778 22.75 12.7845 22.75 13V21.9375C22.75 22.153 22.6644 22.3597 22.512 22.512C22.3597 22.6644 22.153 22.75 21.9375 22.75H4.0625C3.84701 22.75 3.64035 22.6644 3.48798 22.512C3.3356 22.3597 3.25 22.153 3.25 21.9375V4.0625C3.25 3.84701 3.3356 3.64035 3.48798 3.48798C3.64035 3.3356 3.84701 3.25 4.0625 3.25H13C13.2155 3.25 13.4222 3.3356 13.5745 3.48798C13.7269 3.64035 13.8125 3.84701 13.8125 4.0625C13.8125 4.27799 13.7269 4.48465 13.5745 4.63702C13.4222 4.7894 13.2155 4.875 13 4.875H4.875V21.125H21.125V13Z" fill="#F6F5F3"/>
<path d="M11.9323 14.0723L13.273 13.8805L21.5085 5.64667C21.5861 5.57172 21.648 5.48206 21.6906 5.38294C21.7331 5.28381 21.7555 5.17719 21.7565 5.06931C21.7574 4.96143 21.7369 4.85444 21.696 4.75458C21.6552 4.65473 21.5948 4.56401 21.5185 4.48772C21.4423 4.41144 21.3515 4.35111 21.2517 4.31025C21.1518 4.2694 21.0448 4.24884 20.937 4.24978C20.8291 4.25072 20.7225 4.27313 20.6233 4.31571C20.5242 4.3583 20.4345 4.42019 20.3596 4.49779L12.1225 12.7317L11.9307 14.0723H11.9323ZM22.6573 3.3473C22.8839 3.57366 23.0635 3.84244 23.1861 4.13827C23.3087 4.4341 23.3718 4.75119 23.3718 5.07142C23.3718 5.39165 23.3087 5.70874 23.1861 6.00457C23.0635 6.3004 22.8839 6.56918 22.6573 6.79554L14.2317 15.2212C14.1075 15.3459 13.9461 15.4268 13.7718 15.4519L11.0906 15.8354C10.9656 15.8534 10.8382 15.8419 10.7184 15.8021C10.5987 15.7622 10.4898 15.695 10.4006 15.6057C10.3113 15.5164 10.2441 15.4076 10.2042 15.2878C10.1643 15.168 10.1529 15.0406 10.1708 14.9157L10.5543 12.2344C10.579 12.0604 10.6594 11.899 10.7835 11.7745L19.2107 3.34892C19.6678 2.89196 20.2877 2.63525 20.934 2.63525C21.5804 2.63525 22.2002 2.89196 22.6573 3.34892V3.3473Z" fill="#F6F5F3"/>
</svg>
