<svg width="219" height="67" viewBox="0 0 219 67" fill="none" xmlns="http://www.w3.org/2000/svg">
<g filter="url(#filter0_i_73_65)">
<path d="M211 0H8C5.79086 0 4 1.79086 4 4V55C4 57.2091 5.79086 59 8 59H211C213.209 59 215 57.2091 215 55V4C215 1.79086 213.209 0 211 0Z" fill="white"/>
<path d="M201 10H162V49H201V10Z" fill="white" fill-opacity="0.27"/>
<path d="M191.25 30.7188H182.719V39.25H180.281V30.7188H171.75V28.2812H180.281V19.75H182.719V28.2812H191.25V30.7188Z" fill="#F6F5F3"/>
<path d="M181.5 12.4375C176.992 12.4919 172.683 14.307 169.495 17.4951C166.307 20.6833 164.492 24.9916 164.438 29.5C164.492 34.0084 166.307 38.3167 169.495 41.5049C172.683 44.693 176.992 46.5081 181.5 46.5625C186.008 46.5081 190.317 44.693 193.505 41.5049C196.693 38.3167 198.508 34.0084 198.562 29.5C198.508 24.9916 196.693 20.6833 193.505 17.4951C190.317 14.307 186.008 12.4919 181.5 12.4375ZM191.25 30.7188H182.719V39.25H180.281V30.7188H171.75V28.2812H180.281V19.75H182.719V28.2812H191.25V30.7188Z" fill="#343434"/>
<path d="M20.176 23.1001H26.228C26.4206 23.1001 26.585 23.1624 26.721 23.2871C26.857 23.4118 26.925 23.5704 26.925 23.7631C26.925 23.9558 26.857 24.1144 26.721 24.2391C26.585 24.3524 26.4206 24.4091 26.228 24.4091H20.754L20.907 24.1201V28.4211L20.737 28.2341H25.463C25.6556 28.2341 25.82 28.2964 25.956 28.4211C26.092 28.5458 26.16 28.7044 26.16 28.8971C26.16 29.0898 26.092 29.2484 25.956 29.3731C25.82 29.4864 25.6556 29.5431 25.463 29.5431H20.788L20.907 29.3901V33.7931L20.805 33.6741H26.228C26.4206 33.6741 26.585 33.7421 26.721 33.8781C26.857 34.0141 26.925 34.1671 26.925 34.3371C26.925 34.5298 26.857 34.6884 26.721 34.8131C26.585 34.9378 26.4206 35.0001 26.228 35.0001H20.176C19.9833 35.0001 19.819 34.9321 19.683 34.7961C19.5583 34.6601 19.496 34.4958 19.496 34.3031V23.7801C19.496 23.5874 19.5583 23.4288 19.683 23.3041C19.819 23.1681 19.9833 23.1001 20.176 23.1001Z" fill="#343434"/>
<path d="M28.8683 26.1091C29.0836 26.1091 29.265 26.2054 29.4123 26.3981L35.3283 33.9461C35.419 34.0708 35.4643 34.2068 35.4643 34.3541C35.4643 34.5468 35.3963 34.7111 35.2603 34.8471C35.1243 34.9831 34.9656 35.0511 34.7843 35.0511C34.569 35.0511 34.382 34.9491 34.2233 34.7451L28.3073 27.2141C28.2166 27.0894 28.1713 26.9534 28.1713 26.8061C28.1713 26.6021 28.2393 26.4378 28.3753 26.3131C28.5226 26.1771 28.687 26.1091 28.8683 26.1091ZM28.8683 35.0341C28.721 35.0341 28.5736 34.9774 28.4263 34.8641C28.279 34.7508 28.2053 34.6034 28.2053 34.4221C28.2053 34.2748 28.262 34.1331 28.3753 33.9971L31.1633 30.4781L31.8773 31.6001L29.4123 34.7621C29.2763 34.9434 29.095 35.0341 28.8683 35.0341ZM34.7843 26.1091C34.977 26.1091 35.13 26.1714 35.2433 26.2961C35.368 26.4208 35.4303 26.5624 35.4303 26.7211C35.4303 26.7891 35.4133 26.8628 35.3793 26.9421C35.3566 27.0214 35.317 27.0951 35.2603 27.1631L32.4893 30.7161L31.7753 29.6791L34.2233 26.4151C34.382 26.2111 34.569 26.1091 34.7843 26.1091Z" fill="#343434"/>
<path d="M41.1511 35.1701C40.2444 35.1701 39.451 34.9774 38.771 34.5921C38.091 34.2068 37.5584 33.6798 37.173 33.0111C36.799 32.3311 36.612 31.5491 36.612 30.6651C36.612 29.6791 36.8047 28.8404 37.1901 28.1491C37.5867 27.4464 38.0967 26.9138 38.72 26.5511C39.3547 26.1771 40.0234 25.9901 40.726 25.9901C41.2474 25.9901 41.7517 26.0864 42.239 26.2791C42.7264 26.4718 43.157 26.7551 43.531 27.1291C43.905 27.4918 44.2054 27.9338 44.4321 28.4551C44.6587 28.9651 44.7777 29.5374 44.789 30.1721C44.789 30.3534 44.7211 30.5064 44.5851 30.6311C44.4491 30.7558 44.2904 30.8181 44.1091 30.8181H37.3941L37.088 29.6451H43.6331L43.361 29.8831V29.5091C43.3157 29.0444 43.157 28.6478 42.885 28.3191C42.6244 27.9791 42.3014 27.7184 41.916 27.5371C41.5421 27.3558 41.1454 27.2651 40.726 27.2651C40.386 27.2651 40.0461 27.3274 39.7061 27.4521C39.3774 27.5654 39.077 27.7581 38.805 28.0301C38.5444 28.2908 38.329 28.6308 38.159 29.0501C38.0004 29.4694 37.921 29.9738 37.921 30.5631C37.921 31.2204 38.0514 31.7984 38.312 32.2971C38.584 32.7958 38.958 33.1924 39.434 33.4871C39.91 33.7704 40.4654 33.9121 41.1 33.9121C41.4967 33.9121 41.8424 33.8611 42.1371 33.7591C42.4317 33.6571 42.6867 33.5324 42.9021 33.3851C43.1174 33.2264 43.2987 33.0678 43.4461 32.9091C43.5934 32.8071 43.735 32.7561 43.871 32.7561C44.0411 32.7561 44.177 32.8128 44.279 32.9261C44.3924 33.0394 44.4491 33.1754 44.4491 33.3341C44.4491 33.5268 44.3584 33.6968 44.177 33.8441C43.8597 34.1954 43.429 34.5071 42.885 34.7791C42.341 35.0398 41.7631 35.1701 41.1511 35.1701Z" fill="#343434"/>
<path d="M47.5132 35.0001C47.3205 35.0001 47.1562 34.9321 47.0202 34.7961C46.8955 34.6601 46.8332 34.4958 46.8332 34.3031V26.8911C46.8332 26.6984 46.8955 26.5398 47.0202 26.4151C47.1562 26.2791 47.3205 26.2111 47.5132 26.2111C47.7172 26.2111 47.8815 26.2791 48.0062 26.4151C48.1308 26.5398 48.1932 26.6984 48.1932 26.8911V29.1351L47.9892 28.7781C48.0572 28.4268 48.1762 28.0868 48.3462 27.7581C48.5275 27.4181 48.7542 27.1178 49.0262 26.8571C49.2982 26.5851 49.6098 26.3754 49.9612 26.2281C50.3125 26.0694 50.6978 25.9901 51.1172 25.9901C51.3665 25.9901 51.5932 26.0524 51.7972 26.1771C52.0125 26.2904 52.1202 26.4548 52.1202 26.6701C52.1202 26.9081 52.0578 27.0838 51.9332 27.1971C51.8085 27.3104 51.6668 27.3671 51.5082 27.3671C51.3608 27.3671 51.2192 27.3388 51.0832 27.2821C50.9472 27.2141 50.7772 27.1801 50.5732 27.1801C50.2898 27.1801 50.0065 27.2594 49.7232 27.4181C49.4512 27.5654 49.1962 27.7808 48.9582 28.0641C48.7315 28.3474 48.5445 28.6704 48.3972 29.0331C48.2612 29.3844 48.1932 29.7641 48.1932 30.1721V34.3031C48.1932 34.4958 48.1252 34.6601 47.9892 34.7961C47.8645 34.9321 47.7058 35.0001 47.5132 35.0001Z" fill="#343434"/>
<path d="M57.1846 25.9901C57.7626 25.9901 58.2839 26.0524 58.7486 26.1771C59.2132 26.3018 59.5816 26.4718 59.8536 26.6871C60.1256 26.9024 60.2616 27.1461 60.2616 27.4181C60.2616 27.5654 60.2106 27.7071 60.1086 27.8431C60.0066 27.9791 59.8706 28.0471 59.7006 28.0471C59.5419 28.0471 59.4116 28.0188 59.3096 27.9621C59.2189 27.9054 59.1282 27.8318 59.0376 27.7411C58.9582 27.6504 58.8449 27.5711 58.6976 27.5031C58.5616 27.4238 58.3632 27.3614 58.1026 27.3161C57.8419 27.2708 57.5812 27.2481 57.3206 27.2481C56.6972 27.2481 56.1476 27.3954 55.6716 27.6901C55.2069 27.9848 54.8386 28.3814 54.5666 28.8801C54.2946 29.3788 54.1586 29.9454 54.1586 30.5801C54.1586 31.2148 54.2889 31.7814 54.5496 32.2801C54.8102 32.7788 55.1729 33.1754 55.6376 33.4701C56.1022 33.7648 56.6406 33.9121 57.2526 33.9121C57.6492 33.9121 57.9666 33.8781 58.2046 33.8101C58.4426 33.7421 58.6409 33.6628 58.7996 33.5721C59.0036 33.4588 59.1566 33.3454 59.2586 33.2321C59.3719 33.1188 59.5192 33.0621 59.7006 33.0621C59.8932 33.0621 60.0406 33.1244 60.1426 33.2491C60.2559 33.3738 60.3126 33.5268 60.3126 33.7081C60.3126 33.9121 60.1709 34.1274 59.8876 34.3541C59.6042 34.5808 59.2189 34.7734 58.7316 34.9321C58.2556 35.0908 57.7116 35.1701 57.0996 35.1701C56.2382 35.1701 55.4846 34.9718 54.8386 34.5751C54.1926 34.1671 53.6882 33.6174 53.3256 32.9261C52.9742 32.2234 52.7986 31.4414 52.7986 30.5801C52.7986 29.7188 52.9799 28.9424 53.3426 28.2511C53.7166 27.5598 54.2322 27.0101 54.8896 26.6021C55.5469 26.1941 56.3119 25.9901 57.1846 25.9901Z" fill="#343434"/>
<path d="M63.399 34.3031C63.399 34.4958 63.331 34.6601 63.195 34.7961C63.0703 34.9321 62.9117 35.0001 62.719 35.0001C62.515 35.0001 62.3507 34.9321 62.226 34.7961C62.1013 34.6601 62.039 34.4958 62.039 34.3031V26.7551C62.039 26.5624 62.1013 26.4038 62.226 26.2791C62.362 26.1431 62.5263 26.0751 62.719 26.0751C62.9117 26.0751 63.0703 26.1431 63.195 26.2791C63.331 26.4038 63.399 26.5624 63.399 26.7551V34.3031ZM62.719 24.9361C62.4357 24.9361 62.226 24.8794 62.09 24.7661C61.954 24.6528 61.886 24.4771 61.886 24.2391V24.0011C61.886 23.7631 61.9597 23.5874 62.107 23.4741C62.2543 23.3608 62.464 23.3041 62.736 23.3041C63.008 23.3041 63.212 23.3608 63.348 23.4741C63.484 23.5874 63.552 23.7631 63.552 24.0011V24.2391C63.552 24.4771 63.4783 24.6528 63.331 24.7661C63.195 24.8794 62.991 24.9361 62.719 24.9361Z" fill="#343434"/>
<path d="M65.349 33.6061C65.247 33.4588 65.2016 33.3058 65.213 33.1471C65.2243 32.9771 65.3206 32.8298 65.502 32.7051C65.6153 32.6258 65.7456 32.5918 65.893 32.6031C66.0516 32.6144 66.1933 32.6881 66.318 32.8241C66.6353 33.1981 66.998 33.4984 67.406 33.7251C67.814 33.9404 68.3126 34.0481 68.902 34.0481C69.174 34.0368 69.446 33.9914 69.718 33.9121C69.99 33.8328 70.2166 33.6968 70.398 33.5041C70.5906 33.3001 70.687 33.0338 70.687 32.7051C70.687 32.3878 70.5906 32.1384 70.398 31.9571C70.2053 31.7644 69.956 31.6114 69.65 31.4981C69.344 31.3734 69.0096 31.2658 68.647 31.1751C68.273 31.0731 67.9046 30.9598 67.542 30.8351C67.1793 30.6991 66.8506 30.5348 66.556 30.3421C66.2726 30.1381 66.0403 29.8888 65.859 29.5941C65.689 29.2881 65.604 28.9198 65.604 28.4891C65.604 27.9791 65.74 27.5371 66.012 27.1631C66.2953 26.7891 66.6693 26.5001 67.134 26.2961C67.61 26.0921 68.1256 25.9901 68.681 25.9901C68.9983 25.9901 69.327 26.0298 69.667 26.1091C70.0183 26.1771 70.3583 26.3018 70.687 26.4831C71.0156 26.6531 71.3046 26.8911 71.554 27.1971C71.656 27.3104 71.7126 27.4521 71.724 27.6221C71.7353 27.7921 71.6616 27.9451 71.503 28.0811C71.3783 28.1718 71.2366 28.2114 71.078 28.2001C70.9306 28.1888 70.806 28.1321 70.704 28.0301C70.466 27.7468 70.1656 27.5314 69.803 27.3841C69.4516 27.2254 69.0606 27.1461 68.63 27.1461C68.358 27.1461 68.0916 27.1858 67.831 27.2651C67.5703 27.3444 67.3493 27.4804 67.168 27.6731C66.998 27.8544 66.913 28.1094 66.913 28.4381C66.9243 28.7441 67.0263 28.9934 67.219 29.1861C67.4116 29.3788 67.6723 29.5374 68.001 29.6621C68.3296 29.7754 68.6923 29.8888 69.089 30.0021C69.4516 30.0928 69.7973 30.2004 70.126 30.3251C70.466 30.4384 70.772 30.5914 71.044 30.7841C71.316 30.9768 71.5313 31.2261 71.69 31.5321C71.8486 31.8268 71.928 32.2008 71.928 32.6541C71.928 33.1754 71.7806 33.6288 71.486 34.0141C71.1913 34.3881 70.8003 34.6771 70.313 34.8811C69.837 35.0738 69.3213 35.1701 68.766 35.1701C68.1426 35.1701 67.525 35.0511 66.913 34.8131C66.3123 34.5751 65.791 34.1728 65.349 33.6061Z" fill="#343434"/>
<path d="M77.9567 35.1701C77.05 35.1701 76.2567 34.9774 75.5767 34.5921C74.8967 34.2068 74.364 33.6798 73.9787 33.0111C73.6047 32.3311 73.4177 31.5491 73.4177 30.6651C73.4177 29.6791 73.6104 28.8404 73.9957 28.1491C74.3924 27.4464 74.9024 26.9138 75.5257 26.5511C76.1604 26.1771 76.829 25.9901 77.5317 25.9901C78.053 25.9901 78.5574 26.0864 79.0447 26.2791C79.532 26.4718 79.9627 26.7551 80.3367 27.1291C80.7107 27.4918 81.011 27.9338 81.2377 28.4551C81.4644 28.9651 81.5834 29.5374 81.5947 30.1721C81.5947 30.3534 81.5267 30.5064 81.3907 30.6311C81.2547 30.7558 81.096 30.8181 80.9147 30.8181H74.1997L73.8937 29.6451H80.4387L80.1667 29.8831V29.5091C80.1214 29.0444 79.9627 28.6478 79.6907 28.3191C79.43 27.9791 79.107 27.7184 78.7217 27.5371C78.3477 27.3558 77.951 27.2651 77.5317 27.2651C77.1917 27.2651 76.8517 27.3274 76.5117 27.4521C76.183 27.5654 75.8827 27.7581 75.6107 28.0301C75.35 28.2908 75.1347 28.6308 74.9647 29.0501C74.806 29.4694 74.7267 29.9738 74.7267 30.5631C74.7267 31.2204 74.857 31.7984 75.1177 32.2971C75.3897 32.7958 75.7637 33.1924 76.2397 33.4871C76.7157 33.7704 77.271 33.9121 77.9057 33.9121C78.3024 33.9121 78.648 33.8611 78.9427 33.7591C79.2374 33.6571 79.4924 33.5324 79.7077 33.3851C79.923 33.2264 80.1044 33.0678 80.2517 32.9091C80.399 32.8071 80.5407 32.7561 80.6767 32.7561C80.8467 32.7561 80.9827 32.8128 81.0847 32.9261C81.198 33.0394 81.2547 33.1754 81.2547 33.3341C81.2547 33.5268 81.164 33.6968 80.9827 33.8441C80.6654 34.1954 80.2347 34.5071 79.6907 34.7791C79.1467 35.0398 78.5687 35.1701 77.9567 35.1701Z" fill="#343434"/>
</g>
<defs>
<filter id="filter0_i_73_65" x="4" y="0" width="211" height="63" filterUnits="userSpaceOnUse" color-interpolation-filters="sRGB">
<feFlood flood-opacity="0" result="BackgroundImageFix"/>
<feBlend mode="normal" in="SourceGraphic" in2="BackgroundImageFix" result="shape"/>
<feColorMatrix in="SourceAlpha" type="matrix" values="0 0 0 0 0 0 0 0 0 0 0 0 0 0 0 0 0 0 127 0" result="hardAlpha"/>
<feOffset dy="4"/>
<feGaussianBlur stdDeviation="2"/>
<feComposite in2="hardAlpha" operator="arithmetic" k2="-1" k3="1"/>
<feColorMatrix type="matrix" values="0 0 0 0 0 0 0 0 0 0 0 0 0 0 0 0 0 0 0.25 0"/>
<feBlend mode="normal" in2="shape" result="effect1_innerShadow_73_65"/>
</filter>
</defs>
</svg>
