<svg width="219" height="67" viewBox="0 0 219 67" fill="none" xmlns="http://www.w3.org/2000/svg">
<g filter="url(#filter0_i_74_73)">
<path d="M211 0H8C5.79086 0 4 1.79086 4 4V55C4 57.2091 5.79086 59 8 59H211C213.209 59 215 57.2091 215 55V4C215 1.79086 213.209 0 211 0Z" fill="white"/>
<path d="M201 10H162V49H201V10Z" fill="white" fill-opacity="0.27"/>
<path d="M191.25 30.7188H182.719V39.25H180.281V30.7188H171.75V28.2812H180.281V19.75H182.719V28.2812H191.25V30.7188Z" fill="#F6F5F3"/>
<path d="M181.5 12.4375C176.992 12.4919 172.683 14.307 169.495 17.4951C166.307 20.6833 164.492 24.9916 164.438 29.5C164.492 34.0084 166.307 38.3167 169.495 41.5049C172.683 44.693 176.992 46.5081 181.5 46.5625C186.008 46.5081 190.317 44.693 193.505 41.5049C196.693 38.3167 198.508 34.0084 198.562 29.5C198.508 24.9916 196.693 20.6833 193.505 17.4951C190.317 14.307 186.008 12.4919 181.5 12.4375ZM191.25 30.7188H182.719V39.25H180.281V30.7188H171.75V28.2812H180.281V19.75H182.719V28.2812H191.25V30.7188Z" fill="#343434"/>
<path d="M24.613 23.0999C25.6103 23.0999 26.3753 23.3606 26.908 23.8819C27.452 24.3919 27.724 25.1173 27.724 26.0579C27.724 26.5566 27.6106 27.0156 27.384 27.4349C27.1573 27.8543 26.823 28.1886 26.381 28.4379C25.9503 28.6873 25.4176 28.8233 24.783 28.8459L24.749 28.3699C25.1456 28.3699 25.5536 28.4266 25.973 28.5399C26.3923 28.6533 26.7776 28.8346 27.129 29.0839C27.4916 29.3333 27.7806 29.6619 27.996 30.0699C28.2226 30.4779 28.336 30.9823 28.336 31.5829C28.336 32.2289 28.2283 32.7729 28.013 33.2149C27.7976 33.6456 27.5086 33.9969 27.146 34.2689C26.7946 34.5296 26.398 34.7166 25.956 34.8299C25.5253 34.9433 25.089 34.9999 24.647 34.9999H20.176C19.9833 34.9999 19.819 34.9319 19.683 34.7959C19.5583 34.6599 19.496 34.4956 19.496 34.3029V23.7799C19.496 23.5873 19.5583 23.4286 19.683 23.3039C19.819 23.1679 19.9833 23.0999 20.176 23.0999H24.613ZM24.409 24.4429H20.754L20.958 24.1369V28.3699L20.771 28.1489H24.443C24.9416 28.1489 25.3666 27.9903 25.718 27.6729C26.0806 27.3443 26.262 26.8626 26.262 26.2279C26.262 25.6613 26.0976 25.2249 25.769 24.9189C25.4403 24.6016 24.987 24.4429 24.409 24.4429ZM24.545 29.5089H20.839L20.958 29.3899V33.8269L20.822 33.6739H24.596C25.2646 33.6739 25.8086 33.5039 26.228 33.1639C26.6586 32.8239 26.874 32.2969 26.874 31.5829C26.874 31.0276 26.7606 30.6026 26.534 30.3079C26.3073 30.0019 26.0126 29.7923 25.65 29.6789C25.2986 29.5656 24.9303 29.5089 24.545 29.5089Z" fill="#343434"/>
<path d="M31.8106 34.3029C31.8106 34.4956 31.7426 34.6599 31.6066 34.7959C31.4706 34.9319 31.3063 34.9999 31.1136 34.9999C30.9209 34.9999 30.7623 34.9319 30.6376 34.7959C30.5129 34.6599 30.4506 34.4956 30.4506 34.3029V23.0999C30.4506 22.9073 30.5129 22.7486 30.6376 22.6239C30.7736 22.4879 30.9379 22.4199 31.1306 22.4199C31.3346 22.4199 31.4989 22.4879 31.6236 22.6239C31.7483 22.7486 31.8106 22.9073 31.8106 23.0999V34.3029Z" fill="#343434"/>
<path d="M41.6904 26.1259C41.8831 26.1259 42.0417 26.1939 42.1664 26.3299C42.3024 26.4546 42.3704 26.6133 42.3704 26.8059V34.3029C42.3704 34.4956 42.3024 34.6599 42.1664 34.7959C42.0417 34.9319 41.8831 34.9999 41.6904 34.9999C41.4864 34.9999 41.3221 34.9319 41.1974 34.7959C41.0727 34.6599 41.0104 34.4956 41.0104 34.3029V32.6879L41.3334 32.6539C41.3334 32.9033 41.2484 33.1753 41.0784 33.4699C40.9084 33.7646 40.6761 34.0423 40.3814 34.3029C40.0867 34.5523 39.7354 34.7619 39.3274 34.9319C38.9307 35.0906 38.5001 35.1699 38.0354 35.1699C37.2647 35.1699 36.5734 34.9716 35.9614 34.5749C35.3494 34.1669 34.8621 33.6173 34.4994 32.9259C34.1481 32.2346 33.9724 31.4469 33.9724 30.5629C33.9724 29.6676 34.1481 28.8799 34.4994 28.1999C34.8621 27.5086 35.3494 26.9703 35.9614 26.5849C36.5734 26.1883 37.2534 25.9899 38.0014 25.9899C38.4887 25.9899 38.9421 26.0693 39.3614 26.2279C39.7807 26.3866 40.1434 26.6019 40.4494 26.8739C40.7667 27.1459 41.0104 27.4463 41.1804 27.7749C41.3617 28.1036 41.4524 28.4323 41.4524 28.7609L41.0104 28.6589V26.8059C41.0104 26.6133 41.0727 26.4546 41.1974 26.3299C41.3221 26.1939 41.4864 26.1259 41.6904 26.1259ZM38.1884 33.9119C38.7551 33.9119 39.2537 33.7646 39.6844 33.4699C40.1264 33.1753 40.4664 32.7786 40.7044 32.2799C40.9537 31.7699 41.0784 31.1976 41.0784 30.5629C41.0784 29.9396 40.9537 29.3786 40.7044 28.8799C40.4664 28.3699 40.1264 27.9733 39.6844 27.6899C39.2537 27.3953 38.7551 27.2479 38.1884 27.2479C37.6331 27.2479 37.1344 27.3896 36.6924 27.6729C36.2617 27.9563 35.9217 28.3473 35.6724 28.8459C35.4231 29.3446 35.2984 29.9169 35.2984 30.5629C35.2984 31.1976 35.4174 31.7699 35.6554 32.2799C35.9047 32.7786 36.2447 33.1753 36.6754 33.4699C37.1174 33.7646 37.6217 33.9119 38.1884 33.9119Z" fill="#343434"/>
<path d="M49.2598 25.9899C50.0305 25.9899 50.6368 26.1486 51.0788 26.4659C51.5208 26.7833 51.8325 27.2083 52.0138 27.7409C52.2065 28.2736 52.3028 28.8686 52.3028 29.5259V34.3029C52.3028 34.4956 52.2348 34.6599 52.0988 34.7959C51.9741 34.9319 51.8155 34.9999 51.6228 34.9999C51.4301 34.9999 51.2658 34.9319 51.1298 34.7959C51.0051 34.6599 50.9428 34.4956 50.9428 34.3029V29.5599C50.9428 29.1293 50.8748 28.7439 50.7388 28.4039C50.6141 28.0526 50.3988 27.7749 50.0928 27.5709C49.7981 27.3556 49.3901 27.2479 48.8688 27.2479C48.3928 27.2479 47.9565 27.3556 47.5598 27.5709C47.1631 27.7749 46.8458 28.0526 46.6078 28.4039C46.3698 28.7439 46.2508 29.1293 46.2508 29.5599V34.3029C46.2508 34.4956 46.1828 34.6599 46.0468 34.7959C45.9221 34.9319 45.7635 34.9999 45.5708 34.9999C45.3781 34.9999 45.2138 34.9319 45.0778 34.7959C44.9531 34.6599 44.8908 34.4956 44.8908 34.3029V26.8909C44.8908 26.6983 44.9531 26.5396 45.0778 26.4149C45.2138 26.2789 45.3781 26.2109 45.5708 26.2109C45.7748 26.2109 45.9391 26.2789 46.0638 26.4149C46.1885 26.5396 46.2508 26.6983 46.2508 26.8909V28.0979L45.9108 28.4719C45.9675 28.1773 46.0978 27.8826 46.3018 27.5879C46.5058 27.2819 46.7608 27.0099 47.0668 26.7719C47.3728 26.5339 47.7128 26.3469 48.0868 26.2109C48.4608 26.0636 48.8518 25.9899 49.2598 25.9899Z" fill="#343434"/>
<path d="M58.7285 25.9899C59.3065 25.9899 59.8279 26.0523 60.2925 26.1769C60.7572 26.3016 61.1255 26.4716 61.3975 26.6869C61.6695 26.9023 61.8055 27.1459 61.8055 27.4179C61.8055 27.5653 61.7545 27.7069 61.6525 27.8429C61.5505 27.9789 61.4145 28.0469 61.2445 28.0469C61.0859 28.0469 60.9555 28.0186 60.8535 27.9619C60.7629 27.9053 60.6722 27.8316 60.5815 27.7409C60.5022 27.6503 60.3889 27.5709 60.2415 27.5029C60.1055 27.4236 59.9072 27.3613 59.6465 27.3159C59.3859 27.2706 59.1252 27.2479 58.8645 27.2479C58.2412 27.2479 57.6915 27.3953 57.2155 27.6899C56.7509 27.9846 56.3825 28.3813 56.1105 28.8799C55.8385 29.3786 55.7025 29.9453 55.7025 30.5799C55.7025 31.2146 55.8329 31.7813 56.0935 32.2799C56.3542 32.7786 56.7169 33.1753 57.1815 33.4699C57.6462 33.7646 58.1845 33.9119 58.7965 33.9119C59.1932 33.9119 59.5105 33.8779 59.7485 33.8099C59.9865 33.7419 60.1849 33.6626 60.3435 33.5719C60.5475 33.4586 60.7005 33.3453 60.8025 33.2319C60.9159 33.1186 61.0632 33.0619 61.2445 33.0619C61.4372 33.0619 61.5845 33.1243 61.6865 33.2489C61.7999 33.3736 61.8565 33.5266 61.8565 33.7079C61.8565 33.9119 61.7149 34.1273 61.4315 34.3539C61.1482 34.5806 60.7629 34.7733 60.2755 34.9319C59.7995 35.0906 59.2555 35.1699 58.6435 35.1699C57.7822 35.1699 57.0285 34.9716 56.3825 34.5749C55.7365 34.1669 55.2322 33.6173 54.8695 32.9259C54.5182 32.2233 54.3425 31.4413 54.3425 30.5799C54.3425 29.7186 54.5238 28.9423 54.8865 28.2509C55.2605 27.5596 55.7762 27.0099 56.4335 26.6019C57.0909 26.1939 57.8559 25.9899 58.7285 25.9899Z" fill="#343434"/>
</g>
<defs>
<filter id="filter0_i_74_73" x="4" y="0" width="211" height="63" filterUnits="userSpaceOnUse" color-interpolation-filters="sRGB">
<feFlood flood-opacity="0" result="BackgroundImageFix"/>
<feBlend mode="normal" in="SourceGraphic" in2="BackgroundImageFix" result="shape"/>
<feColorMatrix in="SourceAlpha" type="matrix" values="0 0 0 0 0 0 0 0 0 0 0 0 0 0 0 0 0 0 127 0" result="hardAlpha"/>
<feOffset dy="4"/>
<feGaussianBlur stdDeviation="2"/>
<feComposite in2="hardAlpha" operator="arithmetic" k2="-1" k3="1"/>
<feColorMatrix type="matrix" values="0 0 0 0 0 0 0 0 0 0 0 0 0 0 0 0 0 0 0.25 0"/>
<feBlend mode="normal" in2="shape" result="effect1_innerShadow_74_73"/>
</filter>
</defs>
</svg>
