<svg width="20" height="20" viewBox="0 0 20 20" fill="none" xmlns="http://www.w3.org/2000/svg">
<path d="M8.75 9.76557e-05C3.925 9.76557e-05 0 3.9251 0 8.7501C0 13.5751 3.925 17.5001 8.75 17.5001C10.225 17.5001 11.675 17.1501 12.9 16.4751C12.9981 16.5932 13.1069 16.702 13.225 16.8001L15.725 19.3001C15.9558 19.5598 16.2373 19.7697 16.5522 19.9167C16.8671 20.0637 17.2087 20.1448 17.556 20.1551C17.9034 20.1653 18.2492 20.1044 18.5721 19.9762C18.8951 19.8479 19.1885 19.655 19.4342 19.4093C19.6799 19.1636 19.8728 18.8702 20.0011 18.5472C20.1293 18.2243 20.1902 17.8785 20.18 17.5311C20.1697 17.1838 20.0886 16.8422 19.9416 16.5273C19.7946 16.2124 19.5848 15.9309 19.325 15.7001L16.825 13.2001C16.7032 13.0783 16.5692 12.9694 16.425 12.8751C17.1 11.6501 17.525 10.2251 17.525 8.7251C17.525 3.9001 13.6 -0.0249023 8.775 -0.0249023L8.75 9.76557e-05ZM8.75 2.5001C12.225 2.5001 15 5.2751 15 8.7501C15 10.4001 14.4 11.9251 13.35 13.0501C13.325 13.0751 13.3 13.1001 13.275 13.1251C13.1569 13.2232 13.0481 13.332 12.95 13.4501C11.85 14.4501 10.35 15.0251 8.725 15.0251C5.25 15.0251 2.475 12.2501 2.475 8.7751C2.475 5.3001 5.25 2.5251 8.725 2.5251L8.75 2.5001Z" fill="#343434"/>
</svg>
