<svg width="219" height="67" viewBox="0 0 219 67" fill="none" xmlns="http://www.w3.org/2000/svg">
<g filter="url(#filter0_d_513_397)">
<rect x="4" width="211" height="59" rx="4" fill="white"/>
<path d="M19.4091 35V23.3636H23.3409C24.25 23.3636 24.9962 23.5189 25.5795 23.8295C26.1629 24.1364 26.5947 24.5587 26.875 25.0966C27.1553 25.6345 27.2955 26.2462 27.2955 26.9318C27.2955 27.6174 27.1553 28.2254 26.875 28.7557C26.5947 29.286 26.1648 29.7027 25.5852 30.0057C25.0057 30.3049 24.2652 30.4545 23.3636 30.4545H20.1818V29.1818H23.3182C23.9394 29.1818 24.4394 29.0909 24.8182 28.9091C25.2008 28.7273 25.4773 28.4697 25.6477 28.1364C25.822 27.7992 25.9091 27.3977 25.9091 26.9318C25.9091 26.4659 25.822 26.0587 25.6477 25.7102C25.4735 25.3617 25.1951 25.0928 24.8125 24.9034C24.4299 24.7102 23.9242 24.6136 23.2955 24.6136H20.8182V35H19.4091ZM24.8864 29.7727L27.75 35H26.1136L23.2955 29.7727H24.8864ZM33.027 35.1818C32.1861 35.1818 31.4607 34.9962 30.8509 34.625C30.2448 34.25 29.777 33.7273 29.4474 33.0568C29.1217 32.3826 28.9588 31.5985 28.9588 30.7045C28.9588 29.8106 29.1217 29.0227 29.4474 28.3409C29.777 27.6553 30.2353 27.1212 30.8224 26.7386C31.4134 26.3523 32.1027 26.1591 32.8906 26.1591C33.3452 26.1591 33.794 26.2348 34.2372 26.3864C34.6804 26.5379 35.0838 26.7841 35.4474 27.125C35.8111 27.4621 36.1009 27.9091 36.3168 28.4659C36.5327 29.0227 36.6406 29.7083 36.6406 30.5227V31.0909H29.9134V29.9318H35.277C35.277 29.4394 35.1785 29 34.9815 28.6136C34.7884 28.2273 34.5118 27.9223 34.152 27.6989C33.7959 27.4754 33.3755 27.3636 32.8906 27.3636C32.3565 27.3636 31.8944 27.4962 31.5043 27.7614C31.1179 28.0227 30.8205 28.3636 30.6122 28.7841C30.4039 29.2045 30.2997 29.6553 30.2997 30.1364V30.9091C30.2997 31.5682 30.4134 32.1269 30.6406 32.5852C30.8717 33.0398 31.1918 33.3864 31.6009 33.625C32.0099 33.8598 32.4853 33.9773 33.027 33.9773C33.3793 33.9773 33.6974 33.928 33.9815 33.8295C34.2694 33.7273 34.5175 33.5758 34.7259 33.375C34.9342 33.1705 35.0952 32.9167 35.2088 32.6136L36.5043 32.9773C36.3679 33.4167 36.1387 33.803 35.8168 34.1364C35.4948 34.4659 35.0971 34.7235 34.6236 34.9091C34.1501 35.0909 33.6179 35.1818 33.027 35.1818ZM44.8622 28.2273L43.6577 28.5682C43.5819 28.3674 43.4702 28.1723 43.3224 27.983C43.1785 27.7898 42.9815 27.6307 42.7315 27.5057C42.4815 27.3807 42.1615 27.3182 41.7713 27.3182C41.2372 27.3182 40.7921 27.4413 40.4361 27.6875C40.0838 27.9299 39.9077 28.2386 39.9077 28.6136C39.9077 28.947 40.0289 29.2102 40.2713 29.4034C40.5137 29.5966 40.8925 29.7576 41.4077 29.8864L42.7031 30.2045C43.4834 30.3939 44.0649 30.6837 44.4474 31.0739C44.83 31.4602 45.0213 31.9583 45.0213 32.5682C45.0213 33.0682 44.8774 33.5152 44.5895 33.9091C44.3054 34.303 43.9077 34.6136 43.3963 34.8409C42.8849 35.0682 42.2902 35.1818 41.6122 35.1818C40.7221 35.1818 39.9853 34.9886 39.402 34.6023C38.8187 34.2159 38.4493 33.6515 38.294 32.9091L39.5668 32.5909C39.688 33.0606 39.9171 33.4129 40.2543 33.6477C40.5952 33.8826 41.0402 34 41.5895 34C42.2145 34 42.7107 33.8674 43.0781 33.6023C43.4493 33.3333 43.6349 33.0114 43.6349 32.6364C43.6349 32.3333 43.5289 32.0795 43.3168 31.875C43.1046 31.6667 42.7789 31.5114 42.3395 31.4091L40.8849 31.0682C40.0857 30.8788 39.4986 30.5852 39.1236 30.1875C38.7524 29.786 38.5668 29.2841 38.5668 28.6818C38.5668 28.1894 38.705 27.7538 38.9815 27.375C39.2618 26.9962 39.6425 26.6989 40.1236 26.483C40.6084 26.267 41.1577 26.1591 41.7713 26.1591C42.6349 26.1591 43.313 26.3485 43.8054 26.7273C44.3016 27.1061 44.6539 27.6061 44.8622 28.2273ZM50.8352 26.2727V27.4091H46.3125V26.2727H50.8352ZM47.6307 24.1818H48.9716V32.5C48.9716 32.8788 49.0265 33.1629 49.1364 33.3523C49.25 33.5379 49.3939 33.6629 49.5682 33.7273C49.7462 33.7879 49.9337 33.8182 50.1307 33.8182C50.2784 33.8182 50.3996 33.8106 50.4943 33.7955C50.589 33.7765 50.6648 33.7614 50.7216 33.75L50.9943 34.9545C50.9034 34.9886 50.7765 35.0227 50.6136 35.0568C50.4508 35.0947 50.2443 35.1136 49.9943 35.1136C49.6155 35.1136 49.2443 35.0322 48.8807 34.8693C48.5208 34.7064 48.2216 34.4583 47.983 34.125C47.7481 33.7917 47.6307 33.3712 47.6307 32.8636V24.1818Z" fill="#343434"/>
<rect width="39" height="39" transform="translate(162 10)" fill="white" fill-opacity="0.27"/>
<path d="M191.25 30.7188H182.719V39.25H180.281V30.7188H171.75V28.2812H180.281V19.75H182.719V28.2812H191.25V30.7188Z" fill="#F6F5F3"/>
<path d="M181.5 12.4375C176.992 12.4919 172.683 14.307 169.495 17.4951C166.307 20.6833 164.492 24.9916 164.438 29.5C164.492 34.0084 166.307 38.3167 169.495 41.5049C172.683 44.693 176.992 46.5081 181.5 46.5625C186.008 46.5081 190.317 44.693 193.505 41.5049C196.693 38.3167 198.508 34.0084 198.562 29.5C198.508 24.9916 196.693 20.6833 193.505 17.4951C190.317 14.307 186.008 12.4919 181.5 12.4375ZM191.25 30.7188H182.719V39.25H180.281V30.7188H171.75V28.2812H180.281V19.75H182.719V28.2812H191.25V30.7188Z" fill="#343434"/>
</g>
<defs>
<filter id="filter0_d_513_397" x="0" y="0" width="219" height="67" filterUnits="userSpaceOnUse" color-interpolation-filters="sRGB">
<feFlood flood-opacity="0" result="BackgroundImageFix"/>
<feColorMatrix in="SourceAlpha" type="matrix" values="0 0 0 0 0 0 0 0 0 0 0 0 0 0 0 0 0 0 127 0" result="hardAlpha"/>
<feOffset dy="4"/>
<feGaussianBlur stdDeviation="2"/>
<feComposite in2="hardAlpha" operator="out"/>
<feColorMatrix type="matrix" values="0 0 0 0 0 0 0 0 0 0 0 0 0 0 0 0 0 0 0.25 0"/>
<feBlend mode="normal" in2="BackgroundImageFix" result="effect1_dropShadow_513_397"/>
<feBlend mode="normal" in="SourceGraphic" in2="effect1_dropShadow_513_397" result="shape"/>
</filter>
</defs>
</svg>
