<svg width="64" height="63" viewBox="0 0 64 63" fill="none" xmlns="http://www.w3.org/2000/svg">
<g filter="url(#filter0_i_332_343)">
<path d="M53.2466 35.3716C53.2466 47.2288 43.773 56.8409 32.0867 56.8409C20.4004 56.8409 10.9268 47.2288 10.9268 35.3716C10.9268 23.5144 20.4004 13.9023 32.0867 13.9023C43.773 13.9023 53.2466 23.5144 53.2466 35.3716ZM16.4057 35.3716C16.4057 44.1585 23.4264 51.2819 32.0867 51.2819C40.747 51.2819 47.7678 44.1585 47.7678 35.3716C47.7678 26.5847 40.747 19.4613 32.0867 19.4613C23.4264 19.4613 16.4057 26.5847 16.4057 35.3716Z" fill="#A6A6A6"/>
</g>
<path d="M13.8799 32.5334C12.3845 32.3002 10.9672 33.3436 10.9324 34.8783C10.8532 38.3729 11.6163 41.8495 13.1736 44.999C15.1422 48.9803 18.2825 52.2417 22.1593 54.3314C26.0362 56.4212 30.4578 57.2356 34.8111 56.6622C39.1647 56.0887 43.2345 54.1554 46.4569 51.1306C49.6793 48.1057 51.8946 44.1386 52.7958 39.7793C53.6972 35.42 53.2399 30.8843 51.4872 26.8004C49.7346 22.7165 46.7734 19.2869 43.0141 16.9867C40.0402 15.167 36.6833 14.1254 33.2432 13.9344C31.7326 13.8505 30.5974 15.2033 30.7105 16.7341C30.8234 18.2648 32.1455 19.3875 33.6508 19.5406C35.9519 19.7747 38.1851 20.5236 40.1847 21.747C42.9707 23.4517 45.1651 25.9934 46.4638 29.0197C47.7627 32.0461 48.1016 35.4075 47.4337 38.6381C46.7658 41.8687 45.124 44.8084 42.736 47.0502C40.3481 49.2918 37.332 50.7244 34.1058 51.1494C30.8796 51.5744 27.6029 50.9708 24.7299 49.4222C21.8568 47.8736 19.5295 45.4565 18.0707 42.5061C17.0237 40.3885 16.4611 38.0713 16.4096 35.7257C16.3759 34.1909 15.3754 32.7664 13.8799 32.5334Z" fill="url(#paint0_linear_332_343)"/>
<path d="M38.8509 6.15918H26.3631C25.5968 6.15918 24.9756 6.78948 24.9756 7.567V9.1508C24.9756 9.92832 25.5968 10.5586 26.3631 10.5586H38.8509C39.6172 10.5586 40.2385 9.92832 40.2385 9.1508V7.567C40.2385 6.78948 39.6172 6.15918 38.8509 6.15918Z" fill="#F6F5F3"/>
<path d="M34.775 9.32666H29.9187C29.2003 9.32666 28.6179 9.91757 28.6179 10.6465C28.6179 11.3754 29.2003 11.9663 29.9187 11.9663H34.775C35.4935 11.9663 36.0759 11.3754 36.0759 10.6465C36.0759 9.91757 35.4935 9.32666 34.775 9.32666Z" fill="#F6F5F3"/>
<path d="M49.8166 16.6853L45.9854 13.6573C45.4187 13.2093 44.6013 13.3124 44.1598 13.8874C43.7183 14.4624 43.8199 15.2917 44.3866 15.7397L48.2178 18.7677C48.7845 19.2157 49.6019 19.1127 50.0434 18.5376C50.4849 17.9626 50.3833 17.1333 49.8166 16.6853Z" fill="#F6F5F3"/>
<path d="M30.0299 31.0601H34.1404C34.4179 31.0601 34.6491 31.1539 34.8342 31.3416C35.0193 31.5294 35.1117 31.764 35.1117 32.0455C35.1117 32.3153 35.0193 32.5441 34.8342 32.7319C34.6491 32.9078 34.4179 32.9958 34.1404 32.9958H30.0299C29.7524 32.9958 29.5212 32.902 29.3361 32.7143C29.151 32.5265 29.0586 32.2919 29.0586 32.0103C29.0586 31.7406 29.151 31.5176 29.3361 31.3416C29.5212 31.1539 29.7524 31.0601 30.0299 31.0601ZM31.8857 28.8604C32.1863 28.8604 32.4291 28.9659 32.6141 29.1771C32.8107 29.3765 32.909 29.6288 32.909 29.9338V37.7648C32.909 37.929 32.938 38.064 32.9957 38.1696C33.0651 38.2751 33.1518 38.3513 33.2559 38.3983C33.3716 38.4453 33.493 38.4687 33.6201 38.4687C33.7589 38.4687 33.886 38.4453 34.0017 38.3983C34.1174 38.3397 34.2502 38.3103 34.4006 38.3103C34.5624 38.3103 34.7071 38.3865 34.8342 38.5391C34.973 38.6917 35.0423 38.9029 35.0423 39.1726C35.0423 39.5012 34.8632 39.771 34.5047 39.9821C34.1578 40.1933 33.7819 40.2989 33.3773 40.2989C33.1345 40.2989 32.8627 40.2813 32.5621 40.2461C32.273 40.1991 31.9955 40.0995 31.7296 39.9469C31.4752 39.7827 31.2613 39.5364 31.0879 39.2078C30.9144 38.8793 30.8277 38.4277 30.8277 37.8528V29.9338C30.8277 29.6288 30.926 29.3765 31.1225 29.1771C31.3307 28.9659 31.5851 28.8604 31.8857 28.8604Z" fill="#F6F5F3"/>
<defs>
<filter id="filter0_i_332_343" x="10.9268" y="13.9023" width="42.3198" height="46.9385" filterUnits="userSpaceOnUse" color-interpolation-filters="sRGB">
<feFlood flood-opacity="0" result="BackgroundImageFix"/>
<feBlend mode="normal" in="SourceGraphic" in2="BackgroundImageFix" result="shape"/>
<feColorMatrix in="SourceAlpha" type="matrix" values="0 0 0 0 0 0 0 0 0 0 0 0 0 0 0 0 0 0 127 0" result="hardAlpha"/>
<feOffset dy="4"/>
<feGaussianBlur stdDeviation="2"/>
<feComposite in2="hardAlpha" operator="arithmetic" k2="-1" k3="1"/>
<feColorMatrix type="matrix" values="0 0 0 0 0 0 0 0 0 0 0 0 0 0 0 0 0 0 0.25 0"/>
<feBlend mode="normal" in2="shape" result="effect1_innerShadow_332_343"/>
</filter>
<linearGradient id="paint0_linear_332_343" x1="10.9268" y1="40.7496" x2="49.5127" y2="39.4625" gradientUnits="userSpaceOnUse">
<stop stop-color="#F84261"/>
<stop offset="1" stop-color="#FF767E"/>
</linearGradient>
</defs>
</svg>
