<svg width="244" height="288" viewBox="0 0 244 288" fill="none" xmlns="http://www.w3.org/2000/svg">
<g filter="url(#filter0_i_324_333)">
<path d="M244 166C244 233.379 189.379 288 122 288C54.6213 288 0 233.379 0 166C0 98.6213 54.6213 44 122 44C189.379 44 244 98.6213 244 166ZM31.5894 166C31.5894 215.932 72.0676 256.411 122 256.411C171.932 256.411 212.411 215.932 212.411 166C212.411 116.068 171.932 75.5894 122 75.5894C72.0676 75.5894 31.5894 116.068 31.5894 166Z" fill="#4C4C4C"/>
</g>
<path d="M227.714 176.204C236.397 177.042 244.223 170.664 243.933 161.945C243.273 142.092 237.77 122.615 227.799 105.251C215.196 83.3008 196.077 65.8142 173.093 55.2141C150.108 44.6139 124.396 41.4251 99.5182 46.0893C74.6405 50.7536 51.8295 63.0401 34.2458 81.2463C16.6621 99.4525 5.17633 122.677 1.38004 147.702C-2.41626 172.727 1.66485 198.313 13.0579 220.915C24.4509 243.517 42.5918 262.016 64.9668 273.848C82.6672 283.209 102.324 288.031 122.188 288C130.911 287.987 137.014 279.944 135.874 271.295V271.295C134.735 262.647 126.766 256.705 118.051 256.324C104.731 255.742 91.6358 252.217 79.7344 245.923C63.1529 237.154 49.7093 223.445 41.2662 206.696C32.8232 189.946 29.7988 170.985 32.6121 152.44C35.4254 133.895 43.9372 116.684 56.9679 103.192C69.9987 89.6994 86.9033 80.5943 105.339 77.1377C123.775 73.6812 142.83 76.0444 159.863 83.8998C176.897 91.7553 191.065 104.714 200.405 120.981C207.109 132.656 211.087 145.62 212.132 158.912C212.816 167.609 219.031 175.366 227.714 176.204V176.204Z" fill="url(#paint0_linear_324_333)"/>
<rect x="81" width="88" height="25" rx="8" fill="#F6F5F3"/>
<rect x="102" y="18" width="43" height="15" rx="7.5" fill="#F6F5F3"/>
<rect x="196.218" y="38" width="43" height="15" rx="7.5" transform="rotate(37.9182 196.218 38)" fill="#F6F5F3"/>
<g filter="url(#filter1_d_324_333)">
<path d="M110.141 141.5H133.841C135.441 141.5 136.774 142.033 137.841 143.1C138.908 144.167 139.441 145.5 139.441 147.1C139.441 148.633 138.908 149.933 137.841 151C136.774 152 135.441 152.5 133.841 152.5H110.141C108.541 152.5 107.208 151.967 106.141 150.9C105.074 149.833 104.541 148.5 104.541 146.9C104.541 145.367 105.074 144.1 106.141 143.1C107.208 142.033 108.541 141.5 110.141 141.5ZM120.841 129C122.574 129 123.974 129.6 125.041 130.8C126.174 131.933 126.741 133.367 126.741 135.1V179.6C126.741 180.533 126.908 181.3 127.241 181.9C127.641 182.5 128.141 182.933 128.741 183.2C129.408 183.467 130.108 183.6 130.841 183.6C131.641 183.6 132.374 183.467 133.041 183.2C133.708 182.867 134.474 182.7 135.341 182.7C136.274 182.7 137.108 183.133 137.841 184C138.641 184.867 139.041 186.067 139.041 187.6C139.041 189.467 138.008 191 135.941 192.2C133.941 193.4 131.774 194 129.441 194C128.041 194 126.474 193.9 124.741 193.7C123.074 193.433 121.474 192.867 119.941 192C118.474 191.067 117.241 189.667 116.241 187.8C115.241 185.933 114.741 183.367 114.741 180.1V135.1C114.741 133.367 115.308 131.933 116.441 130.8C117.641 129.6 119.108 129 120.841 129Z" fill="#F6F5F3"/>
</g>
<defs>
<filter id="filter0_i_324_333" x="0" y="44" width="244" height="248" filterUnits="userSpaceOnUse" color-interpolation-filters="sRGB">
<feFlood flood-opacity="0" result="BackgroundImageFix"/>
<feBlend mode="normal" in="SourceGraphic" in2="BackgroundImageFix" result="shape"/>
<feColorMatrix in="SourceAlpha" type="matrix" values="0 0 0 0 0 0 0 0 0 0 0 0 0 0 0 0 0 0 127 0" result="hardAlpha"/>
<feOffset dy="4"/>
<feGaussianBlur stdDeviation="2"/>
<feComposite in2="hardAlpha" operator="arithmetic" k2="-1" k3="1"/>
<feColorMatrix type="matrix" values="0 0 0 0 0 0 0 0 0 0 0 0 0 0 0 0 0 0 0.25 0"/>
<feBlend mode="normal" in2="shape" result="effect1_innerShadow_324_333"/>
</filter>
<filter id="filter1_d_324_333" x="100.541" y="129" width="42.9" height="73" filterUnits="userSpaceOnUse" color-interpolation-filters="sRGB">
<feFlood flood-opacity="0" result="BackgroundImageFix"/>
<feColorMatrix in="SourceAlpha" type="matrix" values="0 0 0 0 0 0 0 0 0 0 0 0 0 0 0 0 0 0 127 0" result="hardAlpha"/>
<feOffset dy="4"/>
<feGaussianBlur stdDeviation="2"/>
<feComposite in2="hardAlpha" operator="out"/>
<feColorMatrix type="matrix" values="0 0 0 0 0.316667 0 0 0 0 0.159213 0 0 0 0 0.17839 0 0 0 1 0"/>
<feBlend mode="normal" in2="BackgroundImageFix" result="effect1_dropShadow_324_333"/>
<feBlend mode="normal" in="SourceGraphic" in2="effect1_dropShadow_324_333" result="shape"/>
</filter>
<linearGradient id="paint0_linear_324_333" x1="7.33244e-07" y1="196.5" x2="222.464" y2="188.976" gradientUnits="userSpaceOnUse">
<stop stop-color="#F84261"/>
<stop offset="1" stop-color="#FF767E"/>
</linearGradient>
</defs>
</svg>
